<?xml version="1.0" standalone="no"?>
<!DOCTYPE svg PUBLIC "-//W3C//DTD SVG 20010904//EN"
 "http://www.w3.org/TR/2001/REC-SVG-20010904/DTD/svg10.dtd">
<svg version="1.0" xmlns="http://www.w3.org/2000/svg"
 width="1280.000000pt" height="1048.000000pt" viewBox="0 0 1280.000000 1048.000000"
 preserveAspectRatio="xMidYMid meet">
<metadata>
Created by potrace 1.15, written by Peter Selinger 2001-2017
</metadata>
<g transform="translate(0.000000,1048.000000) scale(0.100000,-0.100000)"
fill="#000000" stroke="none">
<path d="M5214 10470 c-12 -4 -24 -16 -28 -26 -6 -15 2 -1555 20 -3711 l7
-823 82 0 c45 0 97 -3 114 -6 30 -6 31 -7 31 -65 l0 -59 -512 0 c-282 0 -594
-5 -693 -10 -186 -10 -521 -50 -635 -76 -84 -19 -100 -34 -100 -96 0 -34 -5
-50 -15 -54 -8 -3 -81 15 -162 41 -205 64 -620 195 -848 267 -104 33 -280 88
-390 123 -434 136 -958 302 -1330 420 -646 204 -625 198 -651 187 -18 -9 -30
-35 -58 -126 -50 -159 -52 -170 -29 -192 11 -12 523 -178 1365 -444 l1346
-425 -50 -27 c-155 -85 -274 -223 -321 -373 -32 -105 -30 -258 5 -342 35 -83
118 -202 198 -283 121 -123 368 -222 627 -250 54 -6 375 -13 714 -17 l617 -6
-14 -33 c-26 -63 -12 -159 30 -193 9 -8 49 -16 91 -19 41 -2 75 -6 75 -8 0 -1
-557 -810 -1237 -1796 -680 -986 -1243 -1805 -1251 -1819 -28 -47 -11 -70 113
-152 63 -42 123 -77 133 -77 10 0 28 10 39 23 26 27 2563 3706 2563 3715 0 4
-30 27 -66 52 -36 24 -68 48 -70 52 -3 4 237 8 533 8 l539 0 37 -87 c21 -49
37 -91 37 -95 0 -5 -21 -8 -46 -8 -78 0 -113 -30 -114 -96 0 -31 6 -46 26 -65
25 -23 31 -24 202 -27 l177 -4 1188 -1659 c1042 -1454 1191 -1659 1213 -1659
29 0 226 139 251 176 14 22 13 27 -4 56 -11 18 -578 813 -1261 1766 -708 988
-1239 1738 -1236 1745 4 7 43 60 87 120 l81 107 94 0 c159 0 435 49 592 105
91 33 272 122 337 166 27 18 69 52 95 76 26 24 60 48 75 54 29 11 192 21 628
39 143 6 346 15 450 20 238 12 1141 48 1416 57 119 3 208 2 211 -3 4 -5 20
-117 38 -249 36 -270 45 -304 80 -323 35 -18 145 -10 170 13 28 25 36 61 76
325 19 129 36 240 39 246 5 15 74 20 595 44 537 25 609 32 668 62 25 13 47 29
49 35 3 7 -23 26 -56 42 -80 41 -91 59 -91 146 1 53 5 75 19 93 l19 22 332 0
c261 0 331 3 328 13 -4 9 -82 13 -336 15 l-331 2 -19 25 c-28 36 -96 36 -124
0 l-19 -25 -350 -2 c-224 -2 -349 -7 -349 -13 0 -6 123 -11 345 -13 406 -3
385 3 385 -107 0 -52 -3 -65 -15 -65 -9 0 -27 -7 -40 -16 -22 -15 -55 -15
-347 -4 -486 18 -636 25 -642 30 -2 3 -21 109 -40 235 -57 368 -60 375 -171
375 -100 0 -111 -7 -128 -87 -9 -37 -30 -160 -47 -273 -18 -113 -36 -209 -42
-215 -12 -13 -162 -10 -648 15 -217 11 -597 29 -845 40 -728 32 -1066 49
-1125 56 -75 8 -107 23 -163 77 -30 27 -105 76 -193 122 -80 43 -143 79 -141
81 3 3 972 336 1642 564 1018 346 1792 613 1802 622 21 17 16 46 -31 178 -58
167 -56 166 -212 112 -330 -113 -1669 -571 -2024 -692 -223 -76 -670 -229
-995 -340 -939 -321 -917 -314 -931 -304 -7 5 -93 106 -190 224 l-176 215 42
7 c78 13 117 76 86 137 -9 17 -25 35 -35 41 -12 6 -97 10 -206 10 l-187 0 -29
-29 c-32 -33 -37 -67 -14 -110 17 -34 34 -43 102 -50 l52 -6 -33 -75 -33 -75
-235 -3 -235 -2 -7 792 c-3 436 -11 1486 -17 2333 -9 1384 -12 1542 -26 1557
-14 16 -35 18 -152 17 -75 0 -145 -4 -157 -9z m1180 -4758 c97 -116 176 -213
176 -215 0 -1 -58 -1 -130 1 -71 2 -130 5 -130 7 0 3 9 19 20 37 28 45 25 86
-9 139 -44 69 -76 93 -131 99 l-48 5 30 73 c17 40 35 71 39 70 4 -2 87 -99
183 -216z"/>
</g>
</svg>
